<mxfile host="Electron" agent="Mozilla/5.0 (Windows NT 10.0; Win64; x64) AppleWebKit/537.36 (KHTML, like Gecko) draw.io/24.7.17 Chrome/128.0.6613.36 Electron/32.0.1 Safari/537.36" version="24.7.17">
  <diagram name="PÃ¡gina-1" id="em39iUVnf3lyeU1Q7_PB">
    <mxGraphModel dx="1313" dy="1945" grid="1" gridSize="10" guides="1" tooltips="1" connect="1" arrows="1" fold="1" page="1" pageScale="1" pageWidth="827" pageHeight="1169" math="0" shadow="0">
      <root>
        <mxCell id="0" />
        <mxCell id="1" parent="0" />
        <mxCell id="Sr3K34cMepMu3bidoZWj-5" value="Event" style="swimlane;fontStyle=1;align=center;verticalAlign=top;childLayout=stackLayout;horizontal=1;startSize=26;horizontalStack=0;resizeParent=1;resizeParentMax=0;resizeLast=0;collapsible=1;marginBottom=0;whiteSpace=wrap;html=1;" vertex="1" parent="1">
          <mxGeometry x="250" y="150" width="160" height="170" as="geometry" />
        </mxCell>
        <mxCell id="Sr3K34cMepMu3bidoZWj-6" value="- name: String&lt;div&gt;- id: Long&lt;/div&gt;&lt;div&gt;+ chair: Person&lt;/div&gt;&lt;div&gt;+ comite: List&amp;lt;Person&amp;gt;&lt;/div&gt;" style="text;strokeColor=none;fillColor=none;align=left;verticalAlign=top;spacingLeft=4;spacingRight=4;overflow=hidden;rotatable=0;points=[[0,0.5],[1,0.5]];portConstraint=eastwest;whiteSpace=wrap;html=1;" vertex="1" parent="Sr3K34cMepMu3bidoZWj-5">
          <mxGeometry y="26" width="160" height="64" as="geometry" />
        </mxCell>
        <mxCell id="Sr3K34cMepMu3bidoZWj-7" value="" style="line;strokeWidth=1;fillColor=none;align=left;verticalAlign=middle;spacingTop=-1;spacingLeft=3;spacingRight=3;rotatable=0;labelPosition=right;points=[];portConstraint=eastwest;strokeColor=inherit;" vertex="1" parent="Sr3K34cMepMu3bidoZWj-5">
          <mxGeometry y="90" width="160" height="8" as="geometry" />
        </mxCell>
        <mxCell id="Sr3K34cMepMu3bidoZWj-8" value="+ getName(): String&lt;div&gt;+ setName(String): void&lt;/div&gt;&lt;div&gt;+ getId(): Long&lt;/div&gt;&lt;div&gt;+ setId(Long): void&lt;/div&gt;" style="text;strokeColor=none;fillColor=none;align=left;verticalAlign=top;spacingLeft=4;spacingRight=4;overflow=hidden;rotatable=0;points=[[0,0.5],[1,0.5]];portConstraint=eastwest;whiteSpace=wrap;html=1;" vertex="1" parent="Sr3K34cMepMu3bidoZWj-5">
          <mxGeometry y="98" width="160" height="72" as="geometry" />
        </mxCell>
        <mxCell id="Sr3K34cMepMu3bidoZWj-13" value="&lt;p style=&quot;margin:0px;margin-top:4px;text-align:center;&quot;&gt;&lt;i&gt;&amp;lt;&amp;lt;Interface&amp;gt;&amp;gt;&lt;/i&gt;&lt;br&gt;&lt;b&gt;EventRepository&lt;/b&gt;&lt;/p&gt;&lt;hr size=&quot;1&quot; style=&quot;border-style:solid;&quot;&gt;&lt;p style=&quot;margin:0px;margin-left:4px;&quot;&gt;&lt;br&gt;&lt;/p&gt;" style="verticalAlign=top;align=left;overflow=fill;html=1;whiteSpace=wrap;" vertex="1" parent="1">
          <mxGeometry x="420" y="870" width="190" height="60" as="geometry" />
        </mxCell>
        <mxCell id="Sr3K34cMepMu3bidoZWj-14" value="&lt;p style=&quot;margin:0px;margin-top:4px;text-align:center;&quot;&gt;&lt;i&gt;&amp;lt;&amp;lt;Interface&amp;gt;&amp;gt;&lt;/i&gt;&lt;br&gt;&lt;b&gt;IEventService&lt;/b&gt;&lt;/p&gt;&lt;p style=&quot;margin:0px;margin-left:4px;&quot;&gt;&lt;br&gt;&lt;/p&gt;&lt;hr size=&quot;1&quot; style=&quot;border-style:solid;&quot;&gt;&lt;p style=&quot;margin:0px;margin-left:4px;&quot;&gt;+ findAll(): List&amp;lt;Event&amp;gt;&lt;br&gt;+ findById(Long): Event&lt;/p&gt;&lt;p style=&quot;margin:0px;margin-left:4px;&quot;&gt;+ create(Event): Event&lt;/p&gt;&lt;p style=&quot;margin:0px;margin-left:4px;&quot;&gt;+ update(Long,Event): Event&lt;/p&gt;&lt;p style=&quot;margin:0px;margin-left:4px;&quot;&gt;+ deleteById(Long): void&lt;/p&gt;&lt;p style=&quot;margin:0px;margin-left:4px;&quot;&gt;+ findComite(Long): List&amp;lt;Person&amp;gt;&lt;/p&gt;" style="verticalAlign=top;align=left;overflow=fill;html=1;whiteSpace=wrap;" vertex="1" parent="1">
          <mxGeometry x="70" y="470" width="190" height="150" as="geometry" />
        </mxCell>
        <mxCell id="Sr3K34cMepMu3bidoZWj-15" value="&lt;p style=&quot;margin:0px;margin-top:4px;text-align:center;&quot;&gt;&lt;i&gt;&amp;lt;&amp;lt;Interface&amp;gt;&amp;gt;&lt;/i&gt;&lt;br&gt;&lt;b&gt;CrudRepository&lt;/b&gt;&lt;/p&gt;&lt;hr size=&quot;1&quot; style=&quot;border-style:solid;&quot;&gt;&lt;p style=&quot;margin:0px;margin-left:4px;&quot;&gt;&lt;br&gt;&lt;/p&gt;" style="verticalAlign=top;align=left;overflow=fill;html=1;whiteSpace=wrap;" vertex="1" parent="1">
          <mxGeometry x="790" y="865" width="190" height="70" as="geometry" />
        </mxCell>
        <mxCell id="Sr3K34cMepMu3bidoZWj-16" value="EventService" style="swimlane;fontStyle=1;align=center;verticalAlign=top;childLayout=stackLayout;horizontal=1;startSize=26;horizontalStack=0;resizeParent=1;resizeParentMax=0;resizeLast=0;collapsible=1;marginBottom=0;whiteSpace=wrap;html=1;" vertex="1" parent="1">
          <mxGeometry x="410" y="470" width="200" height="160" as="geometry" />
        </mxCell>
        <mxCell id="Sr3K34cMepMu3bidoZWj-17" value="+ eventDao: Eventepository" style="text;strokeColor=none;fillColor=none;align=left;verticalAlign=top;spacingLeft=4;spacingRight=4;overflow=hidden;rotatable=0;points=[[0,0.5],[1,0.5]];portConstraint=eastwest;whiteSpace=wrap;html=1;" vertex="1" parent="Sr3K34cMepMu3bidoZWj-16">
          <mxGeometry y="26" width="200" height="26" as="geometry" />
        </mxCell>
        <mxCell id="Sr3K34cMepMu3bidoZWj-18" value="" style="line;strokeWidth=1;fillColor=none;align=left;verticalAlign=middle;spacingTop=-1;spacingLeft=3;spacingRight=3;rotatable=0;labelPosition=right;points=[];portConstraint=eastwest;strokeColor=inherit;" vertex="1" parent="Sr3K34cMepMu3bidoZWj-16">
          <mxGeometry y="52" width="200" height="8" as="geometry" />
        </mxCell>
        <mxCell id="Sr3K34cMepMu3bidoZWj-19" value="&lt;p style=&quot;margin: 0px 0px 0px 4px;&quot;&gt;+ findAll(): List&amp;lt;Event&amp;gt;&lt;br&gt;+ findById(Long): Event&lt;/p&gt;&lt;p style=&quot;margin: 0px 0px 0px 4px;&quot;&gt;+ create(Event): Event&lt;/p&gt;&lt;p style=&quot;margin: 0px 0px 0px 4px;&quot;&gt;+ update(Long,Event): Event&lt;/p&gt;&lt;p style=&quot;margin: 0px 0px 0px 4px;&quot;&gt;+ deleteById(Long): void&lt;/p&gt;&lt;p style=&quot;margin: 0px 0px 0px 4px;&quot;&gt;+ findComite(Long): List&amp;lt;Person&amp;gt;&lt;/p&gt;" style="text;strokeColor=none;fillColor=none;align=left;verticalAlign=top;spacingLeft=4;spacingRight=4;overflow=hidden;rotatable=0;points=[[0,0.5],[1,0.5]];portConstraint=eastwest;whiteSpace=wrap;html=1;" vertex="1" parent="Sr3K34cMepMu3bidoZWj-16">
          <mxGeometry y="60" width="200" height="100" as="geometry" />
        </mxCell>
        <mxCell id="Sr3K34cMepMu3bidoZWj-20" value="Person" style="swimlane;fontStyle=1;align=center;verticalAlign=top;childLayout=stackLayout;horizontal=1;startSize=26;horizontalStack=0;resizeParent=1;resizeParentMax=0;resizeLast=0;collapsible=1;marginBottom=0;whiteSpace=wrap;html=1;" vertex="1" parent="1">
          <mxGeometry x="650" y="160" width="160" height="150" as="geometry" />
        </mxCell>
        <mxCell id="Sr3K34cMepMu3bidoZWj-21" value="+ name: String&lt;div&gt;- id: Long&lt;/div&gt;" style="text;strokeColor=none;fillColor=none;align=left;verticalAlign=top;spacingLeft=4;spacingRight=4;overflow=hidden;rotatable=0;points=[[0,0.5],[1,0.5]];portConstraint=eastwest;whiteSpace=wrap;html=1;" vertex="1" parent="Sr3K34cMepMu3bidoZWj-20">
          <mxGeometry y="26" width="160" height="44" as="geometry" />
        </mxCell>
        <mxCell id="Sr3K34cMepMu3bidoZWj-22" value="" style="line;strokeWidth=1;fillColor=none;align=left;verticalAlign=middle;spacingTop=-1;spacingLeft=3;spacingRight=3;rotatable=0;labelPosition=right;points=[];portConstraint=eastwest;strokeColor=inherit;" vertex="1" parent="Sr3K34cMepMu3bidoZWj-20">
          <mxGeometry y="70" width="160" height="8" as="geometry" />
        </mxCell>
        <mxCell id="Sr3K34cMepMu3bidoZWj-23" value="+ getName(): String&lt;div&gt;+ setName(String): void&lt;/div&gt;&lt;div&gt;+ getId(): Long&lt;/div&gt;&lt;div&gt;+ setId(Long): void&lt;/div&gt;" style="text;strokeColor=none;fillColor=none;align=left;verticalAlign=top;spacingLeft=4;spacingRight=4;overflow=hidden;rotatable=0;points=[[0,0.5],[1,0.5]];portConstraint=eastwest;whiteSpace=wrap;html=1;" vertex="1" parent="Sr3K34cMepMu3bidoZWj-20">
          <mxGeometry y="78" width="160" height="72" as="geometry" />
        </mxCell>
        <mxCell id="Sr3K34cMepMu3bidoZWj-24" value="&lt;p style=&quot;margin:0px;margin-top:4px;text-align:center;&quot;&gt;&lt;i&gt;&amp;lt;&amp;lt;Interface&amp;gt;&amp;gt;&lt;/i&gt;&lt;br&gt;&lt;b&gt;Serializable&lt;/b&gt;&lt;/p&gt;&lt;hr size=&quot;1&quot; style=&quot;border-style:solid;&quot;&gt;&lt;p style=&quot;margin:0px;margin-left:4px;&quot;&gt;&lt;br&gt;&lt;/p&gt;" style="verticalAlign=top;align=left;overflow=fill;html=1;whiteSpace=wrap;" vertex="1" parent="1">
          <mxGeometry x="435" y="-30" width="190" height="60" as="geometry" />
        </mxCell>
        <mxCell id="Sr3K34cMepMu3bidoZWj-42" style="edgeStyle=orthogonalEdgeStyle;rounded=0;orthogonalLoop=1;jettySize=auto;html=1;exitX=0.5;exitY=0;exitDx=0;exitDy=0;entryX=0.5;entryY=1;entryDx=0;entryDy=0;endArrow=none;endFill=0;" edge="1" parent="1" source="Sr3K34cMepMu3bidoZWj-25" target="Sr3K34cMepMu3bidoZWj-14">
          <mxGeometry relative="1" as="geometry" />
        </mxCell>
        <mxCell id="Sr3K34cMepMu3bidoZWj-25" value="EventController" style="swimlane;fontStyle=1;align=center;verticalAlign=top;childLayout=stackLayout;horizontal=1;startSize=26;horizontalStack=0;resizeParent=1;resizeParentMax=0;resizeLast=0;collapsible=1;marginBottom=0;whiteSpace=wrap;html=1;" vertex="1" parent="1">
          <mxGeometry x="45" y="800" width="240" height="160" as="geometry" />
        </mxCell>
        <mxCell id="Sr3K34cMepMu3bidoZWj-26" value="- eventService: IEventService" style="text;strokeColor=none;fillColor=none;align=left;verticalAlign=top;spacingLeft=4;spacingRight=4;overflow=hidden;rotatable=0;points=[[0,0.5],[1,0.5]];portConstraint=eastwest;whiteSpace=wrap;html=1;" vertex="1" parent="Sr3K34cMepMu3bidoZWj-25">
          <mxGeometry y="26" width="240" height="34" as="geometry" />
        </mxCell>
        <mxCell id="Sr3K34cMepMu3bidoZWj-27" value="" style="line;strokeWidth=1;fillColor=none;align=left;verticalAlign=middle;spacingTop=-1;spacingLeft=3;spacingRight=3;rotatable=0;labelPosition=right;points=[];portConstraint=eastwest;strokeColor=inherit;" vertex="1" parent="Sr3K34cMepMu3bidoZWj-25">
          <mxGeometry y="60" width="240" height="8" as="geometry" />
        </mxCell>
        <mxCell id="Sr3K34cMepMu3bidoZWj-28" value="&lt;p style=&quot;margin: 0px 0px 0px 4px;&quot;&gt;+ findAll(): List&amp;lt;Event&amp;gt;&lt;br&gt;+ getEventById(Long): Event&lt;/p&gt;&lt;p style=&quot;margin: 0px 0px 0px 4px;&quot;&gt;+ create(Event): Event&lt;/p&gt;&lt;p style=&quot;margin: 0px 0px 0px 4px;&quot;&gt;+ findComite(Long): List&amp;lt;Person&amp;gt;&lt;/p&gt;" style="text;strokeColor=none;fillColor=none;align=left;verticalAlign=top;spacingLeft=4;spacingRight=4;overflow=hidden;rotatable=0;points=[[0,0.5],[1,0.5]];portConstraint=eastwest;whiteSpace=wrap;html=1;" vertex="1" parent="Sr3K34cMepMu3bidoZWj-25">
          <mxGeometry y="68" width="240" height="92" as="geometry" />
        </mxCell>
        <mxCell id="Sr3K34cMepMu3bidoZWj-29" value="" style="endArrow=none;endFill=0;endSize=24;html=1;rounded=0;exitX=1;exitY=0.5;exitDx=0;exitDy=0;entryX=0;entryY=0.5;entryDx=0;entryDy=0;startArrow=diamondThin;startFill=1;startSize=24;" edge="1" parent="1" source="Sr3K34cMepMu3bidoZWj-6" target="Sr3K34cMepMu3bidoZWj-21">
          <mxGeometry width="160" relative="1" as="geometry">
            <mxPoint x="420" y="240" as="sourcePoint" />
            <mxPoint x="580" y="240" as="targetPoint" />
          </mxGeometry>
        </mxCell>
        <mxCell id="Sr3K34cMepMu3bidoZWj-30" value="1..*" style="text;html=1;align=center;verticalAlign=middle;whiteSpace=wrap;rounded=0;" vertex="1" parent="1">
          <mxGeometry x="610" y="180" width="60" height="30" as="geometry" />
        </mxCell>
        <mxCell id="Sr3K34cMepMu3bidoZWj-31" value="0" style="text;html=1;align=center;verticalAlign=middle;whiteSpace=wrap;rounded=0;" vertex="1" parent="1">
          <mxGeometry x="400" y="180" width="55" height="20" as="geometry" />
        </mxCell>
        <mxCell id="Sr3K34cMepMu3bidoZWj-33" value="Contiene" style="text;html=1;align=center;verticalAlign=middle;whiteSpace=wrap;rounded=0;" vertex="1" parent="1">
          <mxGeometry x="500" y="180" width="60" height="30" as="geometry" />
        </mxCell>
        <mxCell id="Sr3K34cMepMu3bidoZWj-34" value="" style="endArrow=block;dashed=1;endFill=0;endSize=12;html=1;rounded=0;entryX=0;entryY=0.5;entryDx=0;entryDy=0;exitX=0.5;exitY=0;exitDx=0;exitDy=0;" edge="1" parent="1" source="Sr3K34cMepMu3bidoZWj-5" target="Sr3K34cMepMu3bidoZWj-24">
          <mxGeometry width="160" relative="1" as="geometry">
            <mxPoint x="230" y="19.660000000000025" as="sourcePoint" />
            <mxPoint x="390" y="19.660000000000025" as="targetPoint" />
          </mxGeometry>
        </mxCell>
        <mxCell id="Sr3K34cMepMu3bidoZWj-35" value="" style="endArrow=block;dashed=1;endFill=0;endSize=12;html=1;rounded=0;entryX=1;entryY=0.5;entryDx=0;entryDy=0;exitX=0.5;exitY=0;exitDx=0;exitDy=0;" edge="1" parent="1" source="Sr3K34cMepMu3bidoZWj-20" target="Sr3K34cMepMu3bidoZWj-24">
          <mxGeometry width="160" relative="1" as="geometry">
            <mxPoint x="604" y="160" as="sourcePoint" />
            <mxPoint x="694" y="30" as="targetPoint" />
          </mxGeometry>
        </mxCell>
        <mxCell id="Sr3K34cMepMu3bidoZWj-36" value="Implementa" style="text;html=1;align=center;verticalAlign=middle;whiteSpace=wrap;rounded=0;rotation=-50;" vertex="1" parent="1">
          <mxGeometry x="330" y="70" width="60" height="30" as="geometry" />
        </mxCell>
        <mxCell id="Sr3K34cMepMu3bidoZWj-37" value="Implementa" style="text;html=1;align=center;verticalAlign=middle;whiteSpace=wrap;rounded=0;rotation=60;" vertex="1" parent="1">
          <mxGeometry x="670" y="80" width="60" height="30" as="geometry" />
        </mxCell>
        <mxCell id="Sr3K34cMepMu3bidoZWj-38" value="" style="endArrow=block;dashed=1;endFill=0;endSize=12;html=1;rounded=0;entryX=1;entryY=0.5;entryDx=0;entryDy=0;exitX=0.005;exitY=0.158;exitDx=0;exitDy=0;exitPerimeter=0;" edge="1" parent="1" source="Sr3K34cMepMu3bidoZWj-19" target="Sr3K34cMepMu3bidoZWj-14">
          <mxGeometry width="160" relative="1" as="geometry">
            <mxPoint x="260" y="670" as="sourcePoint" />
            <mxPoint x="365" y="540" as="targetPoint" />
          </mxGeometry>
        </mxCell>
        <mxCell id="Sr3K34cMepMu3bidoZWj-39" value="Implementa" style="text;html=1;align=center;verticalAlign=middle;whiteSpace=wrap;rounded=0;rotation=0;" vertex="1" parent="1">
          <mxGeometry x="300" y="520" width="60" height="30" as="geometry" />
        </mxCell>
        <mxCell id="Sr3K34cMepMu3bidoZWj-41" value="" style="endArrow=block;dashed=1;endFill=0;endSize=12;html=1;rounded=0;entryX=0;entryY=0.5;entryDx=0;entryDy=0;exitX=1;exitY=0.5;exitDx=0;exitDy=0;" edge="1" parent="1" source="Sr3K34cMepMu3bidoZWj-13" target="Sr3K34cMepMu3bidoZWj-15">
          <mxGeometry width="160" relative="1" as="geometry">
            <mxPoint x="745" y="900" as="sourcePoint" />
            <mxPoint x="640" y="760" as="targetPoint" />
          </mxGeometry>
        </mxCell>
        <mxCell id="Sr3K34cMepMu3bidoZWj-43" value="Usa" style="text;html=1;align=center;verticalAlign=middle;whiteSpace=wrap;rounded=0;rotation=-90;" vertex="1" parent="1">
          <mxGeometry x="120" y="700" width="60" height="30" as="geometry" />
        </mxCell>
        <mxCell id="Sr3K34cMepMu3bidoZWj-44" value="1" style="text;html=1;align=center;verticalAlign=middle;whiteSpace=wrap;rounded=0;rotation=-90;" vertex="1" parent="1">
          <mxGeometry x="140" y="620" width="20" height="30" as="geometry" />
        </mxCell>
        <mxCell id="Sr3K34cMepMu3bidoZWj-45" value="0" style="text;html=1;align=center;verticalAlign=middle;whiteSpace=wrap;rounded=0;rotation=-90;" vertex="1" parent="1">
          <mxGeometry x="140" y="780" width="25" height="20" as="geometry" />
        </mxCell>
        <mxCell id="Sr3K34cMepMu3bidoZWj-46" style="edgeStyle=orthogonalEdgeStyle;rounded=0;orthogonalLoop=1;jettySize=auto;html=1;entryX=0.5;entryY=0;entryDx=0;entryDy=0;endArrow=none;endFill=0;exitX=0.528;exitY=1.002;exitDx=0;exitDy=0;exitPerimeter=0;" edge="1" parent="1" source="Sr3K34cMepMu3bidoZWj-19" target="Sr3K34cMepMu3bidoZWj-13">
          <mxGeometry relative="1" as="geometry">
            <mxPoint x="515" y="680" as="sourcePoint" />
          </mxGeometry>
        </mxCell>
        <mxCell id="Sr3K34cMepMu3bidoZWj-47" value="Usa" style="text;html=1;align=center;verticalAlign=middle;whiteSpace=wrap;rounded=0;rotation=-89;" vertex="1" parent="1">
          <mxGeometry x="470" y="740" width="60" height="30" as="geometry" />
        </mxCell>
        <mxCell id="Sr3K34cMepMu3bidoZWj-48" value="1" style="text;html=1;align=center;verticalAlign=middle;whiteSpace=wrap;rounded=0;rotation=0;" vertex="1" parent="1">
          <mxGeometry x="492.5" y="840" width="20" height="30" as="geometry" />
        </mxCell>
        <mxCell id="Sr3K34cMepMu3bidoZWj-49" value="0" style="text;html=1;align=center;verticalAlign=middle;whiteSpace=wrap;rounded=0;rotation=0;" vertex="1" parent="1">
          <mxGeometry x="487.5" y="630" width="25" height="20" as="geometry" />
        </mxCell>
        <mxCell id="Sr3K34cMepMu3bidoZWj-51" value="" style="endArrow=none;endFill=0;endSize=24;html=1;rounded=0;exitX=0.25;exitY=0;exitDx=0;exitDy=0;entryX=0.203;entryY=1.027;entryDx=0;entryDy=0;startArrow=diamondThin;startFill=1;startSize=24;entryPerimeter=0;" edge="1" parent="1" source="Sr3K34cMepMu3bidoZWj-16" target="Sr3K34cMepMu3bidoZWj-8">
          <mxGeometry width="160" relative="1" as="geometry">
            <mxPoint x="510" y="410" as="sourcePoint" />
            <mxPoint x="750" y="410" as="targetPoint" />
          </mxGeometry>
        </mxCell>
        <mxCell id="Sr3K34cMepMu3bidoZWj-52" value="" style="endArrow=none;endFill=0;endSize=24;html=1;rounded=0;exitX=0.75;exitY=0;exitDx=0;exitDy=0;entryX=0.209;entryY=0.999;entryDx=0;entryDy=0;startArrow=diamondThin;startFill=1;startSize=24;entryPerimeter=0;" edge="1" parent="1" source="Sr3K34cMepMu3bidoZWj-16" target="Sr3K34cMepMu3bidoZWj-23">
          <mxGeometry width="160" relative="1" as="geometry">
            <mxPoint x="760" y="458" as="sourcePoint" />
            <mxPoint x="612" y="310" as="targetPoint" />
          </mxGeometry>
        </mxCell>
        <mxCell id="Sr3K34cMepMu3bidoZWj-53" value="0" style="text;html=1;align=center;verticalAlign=middle;whiteSpace=wrap;rounded=0;" vertex="1" parent="1">
          <mxGeometry x="540" y="430" width="55" height="20" as="geometry" />
        </mxCell>
        <mxCell id="Sr3K34cMepMu3bidoZWj-54" value="0" style="text;html=1;align=center;verticalAlign=middle;whiteSpace=wrap;rounded=0;" vertex="1" parent="1">
          <mxGeometry x="420" y="430" width="55" height="20" as="geometry" />
        </mxCell>
        <mxCell id="Sr3K34cMepMu3bidoZWj-55" value="1..*" style="text;html=1;align=center;verticalAlign=middle;whiteSpace=wrap;rounded=0;" vertex="1" parent="1">
          <mxGeometry x="660" y="310" width="60" height="30" as="geometry" />
        </mxCell>
        <mxCell id="Sr3K34cMepMu3bidoZWj-56" value="1..*" style="text;html=1;align=center;verticalAlign=middle;whiteSpace=wrap;rounded=0;" vertex="1" parent="1">
          <mxGeometry x="240" y="320" width="60" height="30" as="geometry" />
        </mxCell>
        <mxCell id="Sr3K34cMepMu3bidoZWj-57" value="Usa" style="text;html=1;align=center;verticalAlign=middle;whiteSpace=wrap;rounded=0;rotation=45;" vertex="1" parent="1">
          <mxGeometry x="354" y="370" width="60" height="30" as="geometry" />
        </mxCell>
        <mxCell id="Sr3K34cMepMu3bidoZWj-58" value="Usa" style="text;html=1;align=center;verticalAlign=middle;whiteSpace=wrap;rounded=0;rotation=-55;" vertex="1" parent="1">
          <mxGeometry x="590" y="360" width="60" height="30" as="geometry" />
        </mxCell>
      </root>
    </mxGraphModel>
  </diagram>
</mxfile>
